<svg width="90" viewBox="0 0 2046 686" fill="#fff"><path d="M1023.2 315.8c-12.7-27.5-35.5-41.3-65.6-41.3-40.2 0-67.8 33.3-67.8 74.6 0 42.9 29.1 74.6 69.9 74.6 29.6 0 50.3-13.8 63.5-39.2h89.5c-17.5 73.6-80.5 121.2-155.6 121.2-86.8 0-155.6-70.4-155.6-157.2 0-87.9 69.3-156.2 154-156.2 77.3 0 140.3 48.7 156.7 123.3h-89zM1151.8 496.3V202.6h82.6v31.2h1.1c15.3-31.2 39.7-41.3 73.6-41.3v88.4c-52.4.5-69.3 20.1-69.3 53.5v162h-88zM1558.3 496.3v-31.8h-1.1c-12.7 25.9-47.6 41.8-86.3 41.8-86.8 0-147.2-68.3-147.2-157.2 0-86.8 63-156.7 147.2-156.7 36 0 69.3 14.3 86.3 41.3h1.1v-31.2h87.9v293.8h-87.9zm0-147.1c0-41.3-33.3-74.6-74.6-74.6-40.2 0-72 33.3-72 75.7 0 40.8 32.3 74.1 73.1 74.1 41.2 0 73.5-32.9 73.5-75.2zM1903.1 496.3V281.2h-95.5v215.1h-87.9V281.2h-38v-78.7h38v-6.9c0-60.3 31.8-91 114.3-91h5.8v66.2c-25.9 0-32.3 12.2-32.3 31.8h95.5v-97.9h87.9v97.9h47.6v78.7h-47.6v215.1h-87.8z"></path><path d="M328.8 324.3H7.5C7.5 146.9 151.4 3 328.8 3v321.3z"></path><path d="M366.2 324.3V3h321.3c0 177.5-143.9 321.3-321.3 321.3z"></path><path d="M366.2 399.1c75.8 0 147.1 29.5 200.8 83.2 44.7 44.7 72.7 101.7 80.7 163.4H328.8c-75.8 0-147.1-29.5-200.8-83.2-44.7-44.7-72.7-101.7-80.7-163.4h318.9m0-37.4H7.5C7.5 539.1 151.4 683 328.8 683h358.7c0-177.5-143.9-321.3-321.3-321.3z"></path></svg>