<svg width="55" height="15" viewBox="0 0 55 15" fill="none" xmlns="http://www.w3.org/2000/svg"><path d="M0.487393 14H8.86737V11.718H3.25515V0.909091H0.487393V14ZM10.6491 14H13.3722V4.18182H10.6491V14ZM12.017 3.01847C12.8097 3.01847 13.4936 2.41761 13.4936 1.63778C13.4936 0.864346 12.8097 0.263494 12.017 0.263494C11.2308 0.263494 10.5469 0.864346 10.5469 1.63778C10.5469 2.41761 11.2308 3.01847 12.017 3.01847ZM18.2765 8.32386C18.2828 7.05824 19.0371 6.31676 20.1365 6.31676C21.2296 6.31676 21.888 7.03267 21.8816 8.23438V14H24.6046V7.74858C24.6046 5.46023 23.2623 4.05398 21.2168 4.05398C19.7594 4.05398 18.7047 4.76989 18.2637 5.91406H18.1486V4.18182H15.5534V14H18.2765V8.32386ZM31.2507 14.1918C33.6861 14.1918 35.3161 13.0092 35.6996 11.1875L33.1875 11.0213C32.9126 11.7692 32.2031 12.1591 31.3018 12.1591C29.9403 12.1591 29.0774 11.2578 29.0774 9.79403V9.78764H35.7635V9.03977C35.7635 5.70312 33.7436 4.05398 31.1484 4.05398C28.2592 4.05398 26.3864 6.10582 26.3864 9.13565C26.3864 12.2486 28.2337 14.1918 31.2507 14.1918ZM29.0774 8.10014C29.1286 6.98153 29.9851 6.08665 31.1932 6.08665C32.3693 6.08665 33.1875 6.9304 33.2003 8.10014H29.0774ZM40.3786 14.1854C41.8295 14.1854 42.7692 13.5526 43.2486 12.6385H43.3253V14H45.9077V7.37784C45.9077 5.03835 43.907 4.05398 41.7848 4.05398C39.3686 4.05398 37.8409 5.17898 37.4638 6.96875L39.9822 7.1733C40.1676 6.52131 40.7493 6.0419 41.7273 6.0419C42.6669 6.0419 43.1783 6.50213 43.1847 7.3267C43.1911 7.9723 42.5135 8.06818 40.8068 8.23438C38.8636 8.41335 37.1186 9.06534 37.1186 11.2578C37.1186 13.201 38.5057 14.1854 40.3786 14.1854ZM41.1584 12.3061C40.321 12.3061 39.7202 11.9162 39.7202 11.1683C39.7202 10.4013 40.353 10.0241 41.3118 9.88991C41.9062 9.80682 42.8778 9.66619 43.2038 9.44886V10.4908C43.2038 11.5199 42.3537 12.3061 41.1584 12.3061ZM48.0202 14H50.7433V8.44531C50.7496 7.24361 51.619 6.41903 52.7184 6.41903C53.0891 6.41903 53.3896 6.52131 53.6452 6.64915L54.4634 4.39915C54.1055 4.18182 53.6452 4.04119 53.1211 4.04119C52.0153 4.04119 51.1204 4.6804 50.7624 5.89489H50.6602V4.18182H48.0202V14Z" fill="#F4F5FF"></path></svg>