<svg width="100%" viewBox="0 0 72 17" fill="#fff"><path d="M11.7417706,3.24208975 C11.7417706,3.977891 11.4948818,4.65607264 11.0790222,5.1981091 C10.9470579,5.08770368 10.8079626,4.98599071 10.6621868,4.89361567 C11.0158928,4.43656028 11.2267501,3.8636274 11.2267501,3.24208975 C11.2267501,3.10240143 11.216166,2.96495756 11.195523,2.83074155 C11.161068,2.6054266 11.0983136,2.38881175 11.0117636,2.18506302 C10.5994326,1.21783641 9.63897686,0.53836831 8.52306178,0.53836831 C8.50564664,0.53836831 8.48823158,0.53836831 8.47089165,0.539011572 C8.42615236,0.538690324 8.38171437,0.539333668 8.33727579,0.540943045 C8.31220441,0.541587109 8.28743298,0.542230408 8.26266156,0.542874473 C8.24299432,0.543196486 8.22340222,0.54383983 8.2040357,0.545127156 C8.18181633,0.546093227 8.15967218,0.546736578 8.13745289,0.548024662 C8.11523352,0.548667961 8.09331486,0.549955332 8.07109557,0.551564701 C8.04887628,0.552852072 8.02673205,0.554140156 8.00481339,0.555427565 C7.96037481,0.55832426 7.916312,0.561543014 7.8721733,0.565405119 C7.85032978,0.567336547 7.82811041,0.569267975 7.80619175,0.571199411 C7.76437256,0.575061509 7.72188604,0.578924372 7.68004462,0.58343049 C7.67908394,0.58343049 7.67843816,0.583751828 7.67747035,0.583751828 C7.67361178,0.584395847 7.67006887,0.584717943 7.66652603,0.585039912 C7.62533032,0.589224061 7.58412666,0.594052146 7.54324668,0.599523711 C7.52136518,0.602098401 7.49947587,0.605317155 7.47758732,0.608214706 C7.45569801,0.610789395 7.43413231,0.614008187 7.41225081,0.617226986 C7.38907083,0.620445739 7.36589791,0.623985876 7.34240289,0.627526681 C7.32244291,0.63074548 7.30216787,0.633964234 7.28189291,0.637183033 C7.25807503,0.641045086 7.2339343,0.644907949 7.20979282,0.649092098 C7.1908014,0.652310897 7.17148779,0.655529651 7.15217351,0.659070456 C7.1508899,0.659391749 7.14959849,0.659391749 7.1479921,0.659713808 C7.12095349,0.664541976 7.0935927,0.66969212 7.06656204,0.674841582 C7.05207414,0.67773833 7.03758698,0.680635873 7.02310696,0.683532621 C6.95712481,0.696406954 6.89145757,0.710247462 6.82579828,0.725054078 C6.80005109,0.730847522 6.77429676,0.736641047 6.74854889,0.742756594 C6.71346385,0.750803562 6.67837812,0.75949379 6.64361593,0.768184777 C6.60016806,0.778804205 6.55639019,0.79007145 6.51325804,0.801984321 C6.46981083,0.813566823 6.42635582,0.825479604 6.38322292,0.838030505 C6.08935913,0.92268119 5.80031391,1.02503976 5.51642617,1.14509851 C4.59651296,1.53424255 3.77026591,2.09139709 3.06054184,2.80080551 C2.35113342,3.51052958 1.79397888,4.33677663 1.40483484,5.25668984 C1.28477609,5.54057758 1.18241752,5.82961529 1.09776684,6.12348659 C0.590818836,6.69191633 0.283109697,7.44155189 0.283109697,8.26332545 C0.283109697,3.7126644 3.97240073,0.0233733657 8.52306178,0.0233733657 C9.34442158,0.0233733657 10.094095,0.331082505 10.662862,0.838030505 C11.1453044,1.26740932 11.4977346,1.84034245 11.653194,2.48955631 C11.7031119,2.697809 11.7327628,2.91377844 11.7398184,3.13555003 C11.7410948,3.17095823 11.7417706,3.2063665 11.7417706,3.24208975 Z"></path><path d="M16.7630883,8.26325023 C16.7630883,12.8138359 13.0737967,16.5031268 8.52313624,16.5031268 C7.70175355,16.5031268 6.9521101,16.1954357 6.38336607,15.6884472 C5.90087854,15.2590758 5.54842612,14.6861811 5.39296674,14.0369438 C5.34307852,13.8287129 5.31346525,13.6127519 5.30637958,13.3909358 C5.30509597,13.3555795 5.30445026,13.3201481 5.30445026,13.2844179 C5.30445026,12.5486313 5.55132363,11.87042 5.96718323,11.3283761 C6.09915518,11.4387969 6.23819779,11.5405098 6.3840111,11.6329142 C6.03027545,12.0899846 5.81944818,12.6628803 5.81944818,13.2844179 C5.81944818,13.4241137 5.83006994,13.5615569 5.85066746,13.6957737 C5.88510747,13.9211179 5.94786933,14.1376802 6.03445649,14.3414829 L6.03477942,14.3414829 C6.44034042,15.2935306 7.37730831,15.9668622 8.47104126,15.9875051 C8.48838118,15.9878061 8.50579632,15.9881064 8.52313624,15.9881064 C8.5405513,15.9881064 8.55796637,15.9878061 8.57530704,15.9875051 C9.28924908,15.9833014 9.98832879,15.8828661 10.6629371,15.6884472 C10.9568167,15.6038498 11.2458912,15.5014604 11.5297872,15.3814316 C12.4497072,14.9922943 13.2759473,14.4350874 13.9856854,13.7257246 C14.6950504,13.0159857 15.2522573,12.1897461 15.6413924,11.2698253 C15.761422,10.9859301 15.8638105,10.6968548 15.948408,10.4030512 C16.4553964,9.83458421 16.7630883,9.08498588 16.7630883,8.26325023 Z"></path><path d="M11.7413948,13.2844179 C11.7413948,13.3201481 11.7407197,13.3555795 11.7394433,13.3909358 C11.563041,13.5023314 11.3815338,13.6040444 11.1951479,13.6957737 C11.2157901,13.5615569 11.2263744,13.4241137 11.2263744,13.2844179 C11.2263744,12.6628803 11.0155921,12.0899846 10.6618111,11.6329142 C10.5546188,11.4941948 10.4342895,11.3660589 10.3026259,11.2511345 C9.82656403,10.8336986 9.20374998,10.5807292 8.52268593,10.5807292 C8.10487486,10.5807292 7.713171,10.4703091 7.37456071,10.2768667 C7.01438404,10.0708888 6.71504021,9.77152923 6.50904719,9.41136824 L6.50904719,9.41099247 C6.64551515,9.05435932 6.72018951,8.66777473 6.72018951,8.26325023 C6.72018951,9.25718459 7.52873655,10.0657087 8.52268593,10.0657087 C8.92728624,10.0657087 9.31417079,10.1403988 9.67080394,10.2768667 C10.0692485,10.4287983 10.429786,10.6575963 10.7339483,10.9456951 C10.858857,11.0634722 10.9743813,11.1916081 11.0786471,11.3283761 C11.4945067,11.87042 11.7413948,12.5486313 11.7413948,13.2844179 Z"></path><path d="M10.5368279,7.11513942 C10.4003599,7.47177325 10.3256706,7.85864992 10.3256706,8.26325023 C10.3256706,7.2693152 9.51714642,6.46077604 8.52313624,6.46077604 C8.11861174,6.46077604 7.73200494,6.38610167 7.37537111,6.24962591 L7.37505614,6.24962591 C6.97657369,6.09770216 6.61608197,5.86885165 6.31191177,5.58077499 C6.18702595,5.4629681 6.07147123,5.3348623 5.96718323,5.19807149 C5.55132363,4.65603503 5.30445026,3.97785347 5.30445026,3.24205214 C5.30445026,3.2063289 5.30509597,3.1709207 5.30637958,3.13551242 C5.48276683,3.02414625 5.66430377,2.92243335 5.85066746,2.83070402 C5.83006994,2.96491995 5.81944818,3.10236383 5.81944818,3.24205214 C5.81944818,3.86358979 6.03027545,4.43652275 6.3840111,4.89357806 C6.49118902,5.03230569 6.61157057,5.16041149 6.74321921,5.27532088 C7.21926602,5.69278687 7.84207219,5.94577811 8.52313624,5.94577811 C8.94064735,5.94577811 9.33233612,6.0561836 9.6709543,6.24962591 L9.67125426,6.24962591 C10.0314911,6.45561885 10.3307748,6.75496343 10.5368279,7.11513942 Z"></path><path d="M13.955209,5.59081876 C13.8209944,5.57021336 13.6835506,5.55959152 13.5438547,5.55959152 C12.9223164,5.55959152 12.3494202,5.77041924 11.8923506,6.12415519 C11.7536305,6.23134032 11.6254946,6.35172179 11.5105702,6.4833705 C11.0931343,6.95941731 10.8401656,7.58226139 10.8401656,8.26332545 C10.8401656,8.68113651 10.7297447,9.07282529 10.5363024,9.41144346 C10.3303244,9.77160444 10.0309656,10.070964 9.67080394,10.276942 C9.31417079,10.140474 8.92728624,10.0657839 8.52268593,10.0657839 C9.51662096,10.0657839 10.3251451,9.25725973 10.3251451,8.26332545 C10.3251451,7.85872513 10.3998345,7.47183338 10.5363024,7.11519955 C10.688234,6.71672498 10.9170319,6.35622538 11.2051314,6.05206231 C11.3229079,5.92716967 11.4510438,5.81162215 11.5878124,5.70733453 C12.1298557,5.29147493 12.808067,5.04460118 13.5438547,5.04460118 C13.5795856,5.04460118 13.6150155,5.04524689 13.6503711,5.04653042 C13.7617667,5.22291813 13.8634797,5.40445499 13.955209,5.59081876 Z"></path><path d="M16.7625629,8.26332545 C16.7625629,9.08506102 16.454871,9.83465935 15.9478825,10.4031256 C15.5185126,10.8855681 14.9456164,11.2379983 14.2963799,11.3934576 C14.0881498,11.4433756 13.872188,11.4730265 13.6503711,11.4800821 C13.6150155,11.4813585 13.5795856,11.4820343 13.5438547,11.4820343 C12.808067,11.4820343 12.1298557,11.2351455 11.5878124,10.8192859 C11.6982326,10.6873215 11.7999454,10.5482263 11.8923506,10.4024505 C12.3494202,10.7561564 12.9223164,10.9670138 13.5438547,10.9670138 C13.6835506,10.9670138 13.8209944,10.9564297 13.955209,10.9357866 C14.1805554,10.9013316 14.3971177,10.8385773 14.6009182,10.7520273 L14.6009182,10.7516522 C15.5529659,10.3461513 16.2263741,9.40919129 16.2469427,8.31542035 C16.2472414,8.29808043 16.2476167,8.28066537 16.2476167,8.26332545 C16.2476167,8.24591031 16.2472414,8.22849525 16.2469427,8.21115532 C16.242739,7.49723475 16.1423014,6.79813282 15.9478825,6.12348659 C15.8632851,5.8296228 15.7608965,5.54057758 15.640867,5.25668984 C15.2517319,4.33677663 14.694525,3.51052958 13.9851599,2.80080551 C13.2754218,2.09139709 12.4491818,1.53424255 11.5292617,1.14509851 C11.2453658,1.02503976 10.9563664,0.92268119 10.6624868,0.838030505 C10.0937199,0.331082505 9.3440464,0.0233733657 8.52268593,0.0233733657 C13.0732712,0.0233733657 16.7625629,3.7126644 16.7625629,8.26332545 Z"></path><path d="M8.52268593,6.46086626 C7.52877379,6.46086626 6.72023463,7.26941331 6.72023463,8.26332545 C6.72023463,8.66792501 6.64556027,9.05450967 6.50908443,9.41114275 L6.50908443,9.41144346 C6.35716075,9.80996314 6.12831024,10.1704248 5.84023358,10.4745878 C5.7224342,10.5994959 5.5943284,10.7150209 5.45753008,10.819361 C4.91550143,11.2352206 4.23731236,11.4820343 3.50151824,11.4820343 C3.46578749,11.4820343 3.43037921,11.4814337 3.39497852,11.4801573 C3.28361235,11.303755 3.18189945,11.1222477 3.09016253,10.9358618 C3.22438627,10.9564297 3.36182242,10.967089 3.50151824,10.967089 C4.12304838,10.967089 4.69598126,10.7562309 5.15303665,10.402525 C5.29176421,10.2953328 5.41987008,10.1749284 5.5347794,10.0432646 C5.95224546,9.56727794 6.2052367,8.94446464 6.2052367,8.26332545 C6.2052367,7.84588873 6.31564219,7.45416272 6.50908443,7.11555243 L6.50908443,7.11523746 C6.71508532,6.75506079 7.01442195,6.45571696 7.37459794,6.24972395 L7.37492079,6.24972395 C7.7315547,6.3861919 8.11808629,6.46086626 8.52268593,6.46086626 Z"></path><path d="M8.52306178,16.503352 C3.97240073,16.503352 0.283109697,12.8140604 0.283109697,8.26339991 C0.283109697,7.44169429 0.590818836,6.69205092 1.09776684,6.12362974 C1.52714565,5.64114221 2.10007878,5.28868979 2.74929264,5.13323041 C2.95754533,5.08334219 3.17351477,5.05372892 3.39528636,5.04664324 C3.43069456,5.04535963 3.46610284,5.04471393 3.50182608,5.04471393 C4.23762733,5.04471393 4.91580897,5.2915873 5.45784543,5.7074469 C5.34744001,5.83941885 5.24572704,5.97846145 5.153352,6.12427477 C4.69629661,5.77053912 4.12336373,5.55971185 3.50182608,5.55971185 C3.36213777,5.55971185 3.22469389,5.57033361 3.09047788,5.59093113 C2.86516293,5.62537114 2.64854808,5.688133 2.44479935,5.77472016 C1.49270589,6.18060409 0.819348007,7.11757198 0.798747902,8.21130493 C0.798426655,8.22864485 0.798104641,8.24605999 0.798104641,8.26339991 C0.798104641,8.28081497 0.798426655,8.29823004 0.798747902,8.31557071 C0.802932817,9.02951275 0.903356864,9.72859246 1.09776684,10.4032008 C1.18241752,10.6970803 1.28477609,10.9861549 1.40483484,11.2700508 C1.79397888,12.1899709 2.35113342,13.0162109 3.06054184,13.725949 C3.77026591,14.4353141 4.59651296,14.992521 5.51642617,15.3816561 C5.80031391,15.5016856 6.08935162,15.6040742 6.38322292,15.6886716 C6.95196763,16.1956601 7.70161107,16.503352 8.52306178,16.503352 Z"></path><path d="M14.574271,8.23690252 C14.5600837,7.68104638 14.1033879,7.23332179 13.5446046,7.23332179 C12.9768128,7.23332179 12.5146384,7.69553429 12.5146384,8.26332545 C12.5146384,8.61545501 12.4689241,8.95692519 12.3832754,9.28203116 C12.277734,9.68370356 12.1106395,10.0609796 11.8931015,10.4024505 C11.8006964,10.5483014 11.6989835,10.6873215 11.5885626,10.8192859 C11.4347547,11.0040203 11.2641325,11.1746433 11.0793973,11.3285263 C10.9750571,11.1916826 10.8595321,11.0636218 10.7346241,10.9457703 C10.8199729,10.8756596 10.9023192,10.8005944 10.9815129,10.7214759 C11.0607065,10.6422829 11.1356959,10.5598614 11.2058817,10.4745878 C11.3195304,10.337744 11.4212434,10.1935447 11.5113212,10.0432646 C11.8296715,9.51052908 11.9996187,8.89995084 11.9996187,8.26332545 C11.9996187,7.87291233 12.144118,7.51624915 12.3832754,7.24458889 C12.6661949,6.92207221 13.0817543,6.71832424 13.5446046,6.71832424 C13.8805952,6.71832424 14.19159,6.8255093 14.4448575,7.00769157 C14.5292305,7.40778048 14.5726188,7.81879074 14.574271,8.23690252 Z"></path><path d="M15.0885392,8.26325023 C15.0885392,8.7805221 14.8342208,9.2384938 14.4438066,9.51886122 C14.1904632,9.70104349 13.8795443,9.80823642 13.5435537,9.80823642 C13.0807034,9.80823642 12.665144,9.60450992 12.3822245,9.28195602 C12.4677988,8.95684998 12.5135131,8.61537979 12.5135131,8.26325023 C12.5135131,8.83104139 12.9757619,9.29321598 13.5435537,9.29321598 C14.1022612,9.29321598 14.5590328,8.84552862 14.57322,8.28967323 C14.5735188,8.28096533 14.5735188,8.27195746 14.5735188,8.26325023 C14.5735188,8.25454232 14.5735188,8.24553453 14.57322,8.2368273 C14.5715679,7.8187156 14.5281053,7.40771247 14.4438066,7.00762431 C14.3405173,6.51483817 14.175975,6.03943639 13.9549103,5.59074354 C13.8631809,5.40437985 13.761468,5.22284292 13.6500701,5.04646279 C13.410613,4.66601146 13.126719,4.31001583 12.801312,3.98428668 C12.4755302,3.6588728 12.1195722,3.37497726 11.7391434,3.13550492 C11.7320118,2.91374084 11.7024362,2.69776389 11.6525182,2.48951142 C12.7688084,3.09623845 13.6893306,4.01678987 14.2960803,5.1330429 C14.408752,5.34032695 14.510465,5.55437458 14.6005429,5.77453265 L14.6005429,5.7748555 C14.9149899,6.54252181 15.0885392,7.38228813 15.0885392,8.26325023 Z"></path><path d="M6.31134833,5.58092497 C6.22605221,5.65109574 6.14365359,5.72609333 6.06447496,5.80527159 C5.98528919,5.88445022 5.91029911,5.96684884 5.84012834,6.05214533 C5.72651007,6.18894328 5.6247971,6.33314345 5.53467423,6.48345353 C5.21633897,7.01615176 5.04639206,7.62677444 5.04639206,8.26339991 C5.04639206,8.65381296 4.90186941,9.01044611 4.6627203,9.2821063 C4.37979294,9.6046602 3.96425619,9.80838678 3.50140587,9.80838678 C3.16537008,9.80838678 2.85444358,9.70119384 2.60112964,9.5190115 C2.51680155,9.11891545 2.47334647,8.70793454 2.47174008,8.28982284 C2.48590506,8.8456789 2.94263736,9.29336633 3.50140587,9.29336633 C4.06918915,9.29336633 4.53139414,8.83119107 4.53139414,8.26339991 C4.53139414,7.91127103 4.57710094,7.56980016 4.6627203,7.244687 C4.76829146,6.84298449 4.93534837,6.46575284 5.15293178,6.12424542 C5.24530645,5.97843886 5.34701943,5.83938874 5.45742484,5.70742438 C5.61127821,5.52266709 5.78187046,5.35207484 5.96662025,5.19822147 C6.07090817,5.33501979 6.18646289,5.46311808 6.31134833,5.58092497 Z"></path><path d="M5.39292921,14.0370181 C4.27668369,13.4303441 3.35612514,12.5097479 2.74939788,11.3935328 C2.6367478,11.1862033 2.5350349,10.9721932 2.44491195,10.7520273 C2.13044239,9.98433881 1.95695249,9.14428679 1.95695249,8.26332545 C1.95695249,7.74605283 2.21122726,7.28804397 2.6016626,7.00769157 C2.85497654,6.8255093 3.16590304,6.71832424 3.50193883,6.71832424 C3.96478915,6.71832424 4.3803259,6.92207221 4.66325326,7.24458889 C4.5776339,7.56965056 4.5319271,7.91119589 4.5319271,8.26332545 C4.5319271,7.69553429 4.0697146,7.23332179 3.50193883,7.23332179 C2.94316282,7.23332179 2.48643036,7.68104638 2.47226553,8.23690252 C2.47194283,8.24560967 2.47194283,8.25461754 2.47194283,8.26332545 C2.47194283,8.2720326 2.47194283,8.28104047 2.47226553,8.28967323 C2.47387943,8.70778426 2.51732701,9.11884031 2.6016626,9.51893636 C2.70498196,10.0117375 2.86945657,10.4871235 3.09058297,10.9357866 C3.18231966,11.1221726 3.28402528,11.3036798 3.39539911,11.4800821 C3.63487108,11.8605868 3.91875912,12.2165442 4.24417329,12.5422515 C4.56991002,12.8676582 4.92589777,13.151553 5.30634947,13.3910859 C5.31342802,13.612827 5.34304091,13.8287887 5.39292921,14.0370181 Z"></path><path d="M10.068723,13.2843429 C10.068723,13.6204093 9.96153077,13.9313282 9.77942296,14.1845957 C9.37932692,14.2689687 8.96827154,14.3124328 8.55015976,14.3140092 C9.1060159,14.2998962 9.55377772,13.8431261 9.55377772,13.2843429 C9.55377772,12.716551 9.091528,12.2543767 8.52373684,12.2543767 C8.17160728,12.2543767 7.83013709,12.2086623 7.50503826,12.1230136 C7.10334363,12.0174722 6.72610478,11.8504528 6.38460456,11.6328398 C6.23879087,11.5404346 6.09974789,11.4387217 5.9677764,11.3283761 C5.7830191,11.174493 5.61243398,11.0038707 5.45857348,10.8191355 C5.5953718,10.7148705 5.7234776,10.5992703 5.84128449,10.4744375 C5.91144775,10.5597111 5.98644497,10.6421326 6.0656236,10.7213263 C6.14480936,10.8004448 6.22720836,10.8754341 6.31250448,10.9456199 C6.44929529,11.0592686 6.59349538,11.1609816 6.74381267,11.2510594 C7.2765109,11.5694097 7.88711144,11.739357 8.52373684,11.739357 C8.9142251,11.739357 9.27048315,11.8842321 9.54251844,12.1230136 C9.8649972,12.4059331 10.068723,12.8214925 10.068723,13.2843429 Z"></path><path d="M14.2969053,11.3933825 C13.6902313,12.5096734 12.7696345,13.430194 11.6534188,14.0369438 C11.4460899,14.149617 11.2320798,14.25133 11.0119139,14.3414071 L11.011614,14.3414071 C10.2439248,14.6559291 9.40417348,14.8294042 8.52321138,14.8294042 C8.00593952,14.8294042 7.54791557,14.5750842 7.26756324,14.1846716 C7.0853881,13.9314025 6.97820297,13.6204093 6.97820297,13.2844179 C6.97820297,12.8215676 7.18194389,12.4060076 7.50446056,12.1230881 C7.82953649,12.2087382 8.17108182,12.2544525 8.52321138,12.2544525 C7.95542022,12.2544525 7.49319339,12.7166268 7.49319339,13.2844179 C7.49319339,13.8432012 7.94093307,14.2998962 8.49678913,14.3140835 C8.50549636,14.3143837 8.51450415,14.3143837 8.52321138,14.3143837 C8.53184407,14.3143837 8.54085194,14.3143837 8.54955917,14.3140835 C8.96767087,14.3124328 9.37872625,14.2690445 9.77882229,14.1846716 C10.2716241,14.0813822 10.7470102,13.9169142 11.1956733,13.6957737 C11.3820592,13.6040444 11.5635665,13.5023314 11.7399687,13.3909358 C12.1203975,13.1514779 12.4764308,12.8675824 12.8021381,12.5421756 C13.1275432,12.2164697 13.4114395,11.8604365 13.6508966,11.4800069 C13.8727134,11.4729512 14.0886752,11.4433004 14.2969053,11.3933825 Z"></path><path d="M11.5883379,5.7072744 C11.4515692,5.81156195 11.3234334,5.92711705 11.2056569,6.05200286 C11.1354711,5.96670636 11.060481,5.88430775 10.9812874,5.80512161 C10.9021689,5.72594298 10.819748,5.65094576 10.7344745,5.5807825 C10.5976307,5.46715672 10.4534313,5.36545133 10.3031513,5.27532088 C9.77041509,4.95699276 9.15983753,4.78704584 8.52321138,4.78704584 C8.1327238,4.78704584 7.77644292,4.64220072 7.50446056,4.40337415 C7.18194389,4.1204471 6.97820297,3.70491005 6.97820297,3.24205965 C6.97820297,2.90602409 7.0853881,2.59509774 7.26756324,2.34178365 C7.6676514,2.25745571 8.07867743,2.2140007 8.49678913,2.21239424 C7.94093307,2.22655891 7.49319339,2.68329137 7.49319339,3.24205965 C7.49319339,3.8098433 7.95542022,4.27204792 8.52321138,4.27204792 C8.87534094,4.27204792 9.21681181,4.3177551 9.54191784,4.40337415 C9.94359025,4.50894561 10.3208663,4.67600253 10.6623365,4.89358556 C10.8081881,4.98596061 10.9472082,5.08767358 11.0791726,5.19807149 C11.2639069,5.35193199 11.4345292,5.52252461 11.5883379,5.7072744 Z"></path><path d="M10.0676721,3.24199202 C10.0676721,3.70484234 9.86387108,4.12037946 9.54139239,4.40330644 C9.21628635,4.31768747 8.87481549,4.27198066 8.52268593,4.27198066 C9.09047709,4.27198066 9.55265168,3.80977567 9.55265168,3.24199202 C9.55265168,2.68322389 9.10496499,2.22649143 8.54903372,2.2123266 C8.5404017,2.21200375 8.53131869,2.21200375 8.52268593,2.21200375 C8.51397877,2.21200375 8.50497091,2.21200375 8.49626367,2.2123266 C8.07815197,2.21393299 7.66712595,2.25738808 7.26703778,2.34171601 C6.77425885,2.44503537 6.29884987,2.60951764 5.85016452,2.83064389 C5.66380084,2.92237323 5.4822639,3.02408612 5.30587627,3.13545267 C4.92542494,3.37492464 4.56943719,3.65882018 4.24370008,3.98422648 C3.91828628,4.30996359 3.63439824,4.66595133 3.39492627,5.04641054 C3.17315431,5.05348909 2.95717751,5.08310198 2.74892489,5.13299028 C3.35565231,4.01673725 4.27621085,3.09618621 5.39245637,2.4894588 C5.59974794,2.37680136 5.81378806,2.27508846 6.03395363,2.18496551 C6.80161244,1.87049595 7.64170161,1.69700582 8.52268593,1.69700582 C9.03988333,1.69700582 9.4979295,1.95128833 9.77829684,2.34171601 C9.96047986,2.59503011 10.0676721,2.9059566 10.0676721,3.24199202 Z"></path><path d="M22.7983833,5.18895846 L24.4215864,5.18895846 L25.9377493,9.33360061 L25.9624441,9.33360061 L27.4621678,5.18895846 L29.0936266,5.18895846 L29.0936266,11.0227869 L28.063663,11.0227869 L28.063663,6.3342996 L28.0471465,6.3342996 L26.2756165,11.0227869 L25.5504901,11.0227869 L23.803652,6.3342996 L23.7871385,6.3342996 L23.7871385,11.0227869 L22.7983833,11.0227869 L22.7983833,5.18895846 Z M31.9353609,5.18895846 L35.7998541,5.18895846 L35.7998541,6.09534482 L32.9735831,6.09534482 L32.9735831,7.57850807 L35.651525,7.57850807 L35.651525,8.45196345 L32.9735831,8.45196345 L32.9735831,10.099939 L35.9481809,10.099939 L35.9481809,11.0227869 L31.9353609,11.0227869 L31.9353609,5.18895846 Z M40.405238,7.70213962 C40.5535641,7.70213962 40.7018931,7.69118029 40.8502229,7.6691865 C40.9984746,7.64726709 41.1317164,7.60605637 41.2497928,7.54562933 C41.3679434,7.4851794 41.4654543,7.39866737 41.5423193,7.28605452 C41.6192616,7.17344243 41.6576956,7.02924301 41.6576956,6.85346347 C41.6576956,6.69415266 41.6219647,6.5636902 41.5505772,6.46206745 C41.4791904,6.36044403 41.388512,6.27941918 41.2786913,6.21899214 C41.1687955,6.15856443 41.0438124,6.1173694 40.9037412,6.09538994 C40.7636708,6.07341828 40.627729,6.06243674 40.4958392,6.06243674 L39.556554,6.06243674 L39.556554,7.70213962 L40.405238,7.70213962 Z M38.5182545,5.18895846 L40.5452311,5.18895846 C40.8198952,5.18895846 41.0863014,5.21779855 41.3445232,5.27547837 C41.602673,5.33315818 41.8319963,5.42792036 42.0324932,5.55975689 C42.2329924,5.69159349 42.3937064,5.864633 42.5145602,6.07886822 C42.6354139,6.29310382 42.6958427,6.55402949 42.6958427,6.86165313 C42.6958427,7.2846364 42.5763401,7.62932657 42.3374069,7.89573229 C42.0984025,8.16221239 41.7729938,8.3420681 41.3609624,8.43544894 L42.9183336,11.0227869 L41.6658761,11.0227869 L40.3144823,8.55082366 L39.5564016,8.55082366 L39.5564016,11.0227869 L38.5182545,11.0227869 L38.5182545,5.18895846 Z M49.4681251,6.55681425 C49.3143156,6.34807371 49.1138186,6.19563959 48.8666299,6.09950334 C48.6194411,6.00337565 48.3777335,5.95530393 48.1415034,5.95530393 C47.8394414,5.95530393 47.5647796,6.01023659 47.3175908,6.12010123 C47.0703255,6.22996656 46.8575187,6.38103472 46.6789392,6.57329873 C46.5004341,6.76556192 46.3631411,6.99077974 46.2669822,7.24896502 C46.1708225,7.50715105 46.1227817,7.78726362 46.1227817,8.08940002 C46.1227817,8.40805024 46.1694713,8.69915225 46.2628528,8.96285547 C46.3562343,9.22655803 46.4894731,9.45310449 46.6625,9.64264313 C46.8355239,9.83218176 47.0428525,9.97908427 47.2845608,10.0834997 C47.5262713,10.1878398 47.7982293,10.2400099 48.1003664,10.2400099 C48.4134637,10.2400099 48.6908286,10.1782314 48.9325361,10.0545998 C49.1742444,9.93104264 49.3692661,9.7676263 49.5175951,9.56435071 L50.3498369,10.1494067 C50.0916121,10.4734618 49.7757396,10.7247789 49.4022188,10.9033582 C49.0286928,11.0818631 48.5919688,11.1711148 48.0921107,11.1711148 C47.6361671,11.1711148 47.2173026,11.0956 46.8355239,10.944569 C46.4537422,10.7934636 46.1255591,10.5820056 45.850895,10.3100454 C45.5761597,10.0381604 45.3619987,9.71403017 45.2081171,9.33780424 C45.0543068,8.96150393 44.9774418,8.54534437 44.9774418,8.08940002 C44.9774418,7.62249566 45.0584361,7.20090117 45.2205013,6.82460799 C45.3825672,6.44832269 45.6050582,6.12834381 45.8879028,5.86467061 C46.1708225,5.6009899 46.5045604,5.39774404 46.8890459,5.25491808 C47.273602,5.11209205 47.6911116,5.04068286 48.1415034,5.04068286 C48.3283378,5.04068286 48.5232851,5.05853315 48.7265587,5.09424176 C48.929833,5.12994992 49.1248547,5.18488258 49.3116117,5.25903937 C49.4983755,5.33319579 49.6741768,5.42521037 49.8389481,5.53507532 C50.0037141,5.64494064 50.1438595,5.77677694 50.2591615,5.93058512 L49.4681251,6.55681425 Z M57.1960575,8.88043396 C57.1960575,9.23196285 57.1356325,9.54918707 57.014775,9.83210729 C56.8939242,10.1150268 56.7291529,10.3553847 56.5203981,10.5531057 C56.3116433,10.750902 56.0644545,10.9032838 55.7788318,11.0104009 C55.4931347,11.1175187 55.182817,11.1711148 54.8477302,11.1711148 C54.5126381,11.1711148 54.2022462,11.1175187 53.9166234,11.0104009 C53.6309263,10.9032838 53.3823863,10.750902 53.1709277,10.5531057 C52.9593955,10.3553847 52.7946295,10.1150268 52.6764758,9.83210729 C52.5583971,9.54918707 52.4993225,9.23196285 52.4993225,8.88043396 L52.4993225,5.18895846 L53.5375478,5.18895846 L53.5375478,8.83922317 C53.5375478,9.00954556 53.5595395,9.17844194 53.6035283,9.3459867 C53.6474376,9.51353153 53.7202505,9.66321092 53.8218126,9.795025 C53.9234558,9.92691414 54.0580457,10.0340319 54.2255891,10.1163776 C54.3931325,10.1987991 54.6005414,10.2400099 54.8477302,10.2400099 C55.094919,10.2400099 55.3022483,10.1987991 55.469791,10.1163776 C55.6373344,10.0340319 55.771925,9.92691414 55.8735674,9.795025 C55.9752046,9.66321092 56.0480176,9.51353153 56.0919268,9.3459867 C56.1358413,9.17844194 56.1578391,9.00954556 56.1578391,8.83922317 L56.1578391,5.18895846 L57.1960575,5.18895846 L57.1960575,8.88043396 Z M61.8753084,7.70213962 C62.0236314,7.70213962 62.1719612,7.69118029 62.3202903,7.6691865 C62.4686193,7.64726709 62.6017837,7.60605637 62.7199374,7.54562933 C62.8380108,7.4851794 62.9355246,7.39866737 63.0123866,7.28605452 C63.0893289,7.17344243 63.1277629,7.02924301 63.1277629,6.85346347 C63.1277629,6.69415266 63.0921063,6.5636902 63.0206452,6.46206745 C62.9492577,6.36044403 62.8585823,6.27941918 62.7487616,6.21899214 C62.6388658,6.15856443 62.5138857,6.1173694 62.3738145,6.09538994 C62.2337441,6.07341828 62.0977963,6.06243674 61.9659838,6.06243674 L61.0266244,6.06243674 L61.0266244,7.70213962 L61.8753084,7.70213962 Z M59.9886228,5.18895846 L62.0156025,5.18895846 C62.2902635,5.18895846 62.5566719,5.21779855 62.8148908,5.27547837 C63.0730413,5.33315818 63.3023677,5.42792036 63.5028638,5.55975689 C63.703435,5.69159349 63.8640777,5.864633 63.9849285,6.07886822 C64.1057853,6.29310382 64.166211,6.55402949 64.166211,6.86165313 C64.166211,7.2846364 64.0467114,7.62932657 63.8077753,7.89573229 C63.5688451,8.16221239 63.2433621,8.3420681 62.831333,8.43544894 L64.388705,11.0227869 L63.1362445,11.0227869 L61.7848499,8.55082366 L61.0268473,8.55082366 L61.0268473,11.0227869 L59.9886228,11.0227869 L59.9886228,5.18895846 Z M68.0791203,8.49317424 L65.8873004,5.18895846 L67.1562714,5.18895846 L68.6229672,7.64441507 L70.1061,5.18895846 L71.3091648,5.18895846 L69.1173448,8.49317424 L69.1173448,11.0227869 L68.0791203,11.0227869 L68.0791203,8.49317424 Z"></path></svg>