<svg width="85%" viewBox="0 0 140 50" fill="#fff"><path d="M24.203 18.378c6.91-9.908 23.11-13.99 30.49-9.266-.948.882-2.996 2.49-3.603 6.127-.408 2.446-1.473 5.012-3.304 7.527a13.074 13.074 0 00-4.564-.741c-.66.008-1.321.065-1.964.17-2.427.392-4.645 1.465-6.245 3.02-1.662 1.614-2.577 3.672-2.577 5.793 0 .381.029.758.085 1.13-1.183.182-2.366.314-3.37.336 1.19.502 2.622.621 3.586.64.04.138.085.275.133.41-2.37 1.021-4.373 1.525-5.993 1.747.621.15 1.329.277 2.131.362.103.01.117.158.017.188-3.618 1.09-5.917 1.072-7.318.71a65.287 65.287 0 00-2.345 4.172c-.073.137-.295.527-.539.906l-.046.07-.046.07c-.494.746-1.01 1.317-.53-.386l.019-.066.004-.013a5.39 5.39 0 01.022-.07l.004-.014a6.76 6.76 0 01.025-.076l.001-.003a8.28 8.28 0 01.03-.085l.005-.016a9.882 9.882 0 01.114-.308l.007-.018a14.5 14.5 0 01.042-.11l.005-.01.045-.115.004-.008.05-.123.007-.018.054-.13.002-.004.059-.138.003-.008.062-.143.007-.015.138-.31.003-.007.074-.163.005-.012.161-.345.004-.008a35.395 35.395 0 01.274-.569l.004-.007a44.925 44.925 0 01.309-.615l.004-.009c.109-.212.223-.43.343-.656l.006-.012c.12-.225.245-.457.376-.695l.008-.014c.087-.16.178-.321.27-.486 2.15-3.812 5.675-9.042 10.738-14.15 4.401-4.562 12.38-9.868 16.38-11.26.755-.299 2.247-.745 3.06-.94l-.284.06C41.212 11.768 28.93 20.1 20.294 35.138c-1.25-2.483-1.464-5.17-.63-7.999.03-.099.17-.089.185.013.2 1.412.56 2.462.97 3.256-.374-3.145-.294-6.97 1.22-9.092.054-.074.17-.036.17.057.012 1.832.14 5.27.641 5.892.169-2.53.227-7.251 1.353-8.886zm19.199 4.416c5.64 0 10.212 3.678 10.212 8.214 0 2.012-.9 3.854-2.39 5.282-.286.271-.408.685-.408 1.222 0 .833.296 1.963.732 3.313.019.07.027.132.027.19 0 .265-.188.398-.4.398a.56.56 0 01-.298-.09c-.17-.108-.342-.22-.512-.333l-.146-.098c-1.46-.978-2.867-2.028-3.72-2.028a.877.877 0 00-.178.017l-.04.01-.018.004c-.908.213-1.868.328-2.861.328-5.64 0-10.213-3.678-10.213-8.215 0-3.978 3.517-7.296 8.187-8.052a12.652 12.652 0 012.026-.162zm4.699 6.824c-.83 0-1.503.689-1.503 1.538 0 .85.673 1.538 1.503 1.538.83 0 1.502-.689 1.502-1.538 0-.85-.672-1.538-1.502-1.538zm-4.843 0c-.83 0-1.503.689-1.503 1.538 0 .85.673 1.538 1.503 1.538.83 0 1.502-.689 1.502-1.538 0-.85-.673-1.538-1.502-1.538zm-4.844 0c-.83 0-1.502.689-1.502 1.538 0 .85.672 1.538 1.502 1.538s1.503-.689 1.503-1.538c0-.85-.673-1.538-1.503-1.538zM82.156 35.885l-2.558-3.414c2.03-1.714 3.177-4.47 3.177-7.976v-.027c0-6.143-3.546-9.98-9.149-9.98s-9.163 3.824-9.163 9.98v.027c0 6.143 3.507 9.993 9.163 9.993 1.226 0 2.36-.185 3.375-.54l1.45 1.937h3.705zm-8.53-4.772c-3.138 0-5.102-2.597-5.102-6.618v-.027c0-4.034 2.004-6.605 5.102-6.605 3.085 0 5.089 2.571 5.089 6.605v.027c0 2.056-.528 3.73-1.45 4.89l-1.226-1.647h-3.705l2.439 3.243a4.71 4.71 0 01-1.147.132zm16.836 3.19c2.07 0 3.547-.962 4.206-2.544h.237V34h3.85V19.485h-3.85v8.385c0 1.964-1.028 3.243-2.926 3.243-1.82 0-2.598-1.068-2.598-3.125v-8.503h-3.85v9.387c0 3.454 1.675 5.431 4.931 5.431zm13.607-17.046c1.186 0 2.162-.95 2.162-2.136 0-1.2-.976-2.149-2.162-2.149-1.187 0-2.175.95-2.175 2.15 0 1.186.988 2.135 2.175 2.135zM105.98 34V19.485h-3.85V34h3.85zm7.358 0V13.935h-3.85V34h3.85zm7.463 0V13.935h-3.85V34h3.85z"></path></svg>