<svg width="75%" fill="#fff" viewBox="0 0 103 26"><path d="M10.761 0H2.05A2.05 2.05 0 000 2.05v3.587c0 .424.344.768.769.768h11.273a.769.769 0 00.769-.768V2.05A2.05 2.05 0 0010.76 0zm12.811 8.647H.77a.769.769 0 00-.77.769v8.07a2.05 2.05 0 002.05 2.05h22.803a.769.769 0 00.769-.768v-8.07a2.05 2.05 0 00-2.05-2.05zm1.281 13.132H13.58a.769.769 0 00-.77.768V23.7c0 1.062.861 1.922 1.923 1.922H23.7c1.062 0 1.922-.86 1.922-1.922v-1.153a.769.769 0 00-.769-.768z"></path><path d="M34.59 3.075v19h3.884V15.35a.256.256 0 01.468-.145l4.716 6.872h4.7l-5.024-7.027a.257.257 0 01.109-.385c1.542-.653 2.552-1.287 3.029-1.901.76-.978 1.14-2.214 1.14-3.707 0-1.947-.613-3.431-1.839-4.451-1.225-1.02-3.009-1.53-5.35-1.53H34.59zm5.64 9.166h-1.756V6.288h2.088c.958 0 1.719.266 2.28.8.563.533.844 1.254.844 2.163 0 .955-.3 1.692-.899 2.211-.599.52-1.451.78-2.557.78z"></path><path d="M49.71 10.41c-1.19 1.313-1.784 3.003-1.784 5.07 0 2.05.616 3.74 1.847 5.071 1.232 1.33 2.807 1.996 4.726 1.996 1.274 0 2.418-.35 3.433-1.05 1.015-.7 1.824-1.69 2.427-2.97l-3.045-.918a3.038 3.038 0 01-1.133 1.252 3.074 3.074 0 01-1.656.46c-.824 0-1.52-.268-2.09-.8-.569-.534-.925-1.255-1.07-2.164h9.44c.016-.167.025-.403.025-.71 0-2.123-.607-3.855-1.822-5.195-1.214-1.34-2.78-2.01-4.7-2.01-1.877 0-3.41.656-4.599 1.969zm7.734 3.512h-6.05c.161-.9.497-1.322 1.006-1.804.51-.482 1.163-.723 1.962-.723.815 0 1.496.248 2.044.744s.894.911 1.038 1.783z"></path><path d="M61.53 8.755V11.8h1.493v7.693c0 .89.184 1.53.553 1.92.368.389.976.583 1.824.583h2.862V18.98h-.622c-.36 0-.62-.067-.781-.202-.161-.134-.242-.355-.242-.66V11.8h1.645V8.755h-1.645V5.222h-3.594v3.533H61.53z"></path><path d="M71.193 10.418c-1.285 1.317-1.928 3.014-1.928 5.09 0 2.05.645 3.736 1.934 5.057 1.29 1.322 2.931 1.982 4.924 1.982 1.939 0 3.575-.67 4.91-2.01 1.334-1.34 2-2.979 2-4.917 0-2.077-.644-3.793-1.934-5.147s-2.93-2.03-4.923-2.03c-2.037 0-3.698.658-4.983 1.975zm1.54 5.07c0-1.14.322-2.063.967-2.768.654-.705 1.511-1.057 2.571-1.057 1.06 0 1.906.35 2.537 1.05.631.7.947 1.644.947 2.831 0 1.104-.327 2.005-.981 2.706-.655.7-1.498 1.05-2.53 1.05-1.05 0-1.899-.35-2.544-1.05-.645-.7-.968-1.621-.968-2.762zm13.397-5.07c-1.285 1.317-1.928 3.014-1.928 5.09 0 2.05.645 3.736 1.934 5.057 1.29 1.322 2.931 1.982 4.924 1.982 1.939 0 3.575-.67 4.91-2.01 1.334-1.34 2-2.979 2-4.917 0-2.077-.644-3.793-1.934-5.147s-2.93-2.03-4.923-2.03c-2.037 0-3.698.658-4.983 1.975zm1.54 5.07c0-1.14.322-2.063.967-2.768.654-.705 1.512-1.057 2.571-1.057 1.06 0 1.906.35 2.537 1.05.631.7.947 1.644.947 2.831 0 1.104-.327 2.005-.981 2.706-.655.7-1.498 1.05-2.53 1.05-1.05 0-1.899-.35-2.544-1.05-.645-.7-.968-1.621-.968-2.762z"></path><path d="M99.406 3.075v19H103v-19h-3.594z"></path></svg>